<svg xmlns="http://www.w3.org/2000/svg" width="2304" height="1856" viewBox="0 -320 2304 1856">
  <title>Old Town exterior generation mask v2</title>
  <desc>
    Clean 18x12 production mask at 128px per tile plus 320px north overscan. The logical
    world crop is y=0..1536. Foreground boundary roofs are off-map visual masses; the
    central three-tile road and the south branch remain walkable. No QA grid, status FX,
    baked glow, long shadow, UI, or character is present in this conditioning image.
  </desc>

  <!-- Ground. Exact logical map is retained; low-contrast seams are not diagnostics. -->
  <rect x="0" y="-320" width="2304" height="1856" fill="#536c45"/>
  <g fill="#896e49">
    <rect x="640" y="384" width="256" height="128"/>
    <rect x="1408" y="384" width="128" height="128"/>
    <rect x="512" y="512" width="128" height="384"/>
    <rect x="1536" y="512" width="128" height="128"/>
    <rect x="1920" y="640" width="128" height="256"/>
    <rect x="0" y="896" width="640" height="128"/>
    <rect x="1536" y="896" width="768" height="128"/>
    <rect x="0" y="1408" width="1024" height="128"/>
    <rect x="1280" y="1408" width="1024" height="128"/>
  </g>
  <rect x="640" y="512" width="896" height="512" fill="#918f80"/>
  <rect x="0" y="1024" width="2304" height="384" fill="#686d70"/>
  <rect x="1024" y="1408" width="256" height="128" fill="#686d70"/>

  <!-- Walkable plaza articulation: flush organic planting mosaic and edge steps are decals. -->
  <g id="plaza-decals" fill="none">
    <path d="M804 708 C816 612 884 566 968 578 C1046 548 1114 608 1110 692 C1144 774 1078 850 986 838 C902 872 816 820 804 708 Z" fill="#667b4d" stroke="#7f765c" stroke-width="26"/>
    <path d="M832 688 C860 642 906 630 946 650 C978 610 1032 614 1054 660 C1090 682 1084 734 1052 754 C1028 806 970 810 938 776 C890 802 842 770 832 724 Z" fill="#526f43"/>
    <g fill="#a15a68" stroke="#36543a" stroke-width="5">
      <circle cx="874" cy="684" r="18"/><circle cx="906" cy="704" r="14"/><circle cx="960" cy="660" r="16"/>
      <circle cx="1018" cy="694" r="19"/><circle cx="1062" cy="730" r="15"/><circle cx="982" cy="764" r="17"/>
      <circle cx="914" cy="754" r="13"/>
    </g>
    <g fill="#c49c51" stroke="#36543a" stroke-width="4">
      <circle cx="894" cy="730" r="10"/><circle cx="1038" cy="650" r="11"/><circle cx="1040" cy="772" r="10"/>
    </g>
    <path d="M660 996 H1516 M680 976 H1496" stroke="#77786f" stroke-width="18" stroke-linecap="round"/>
  </g>

  <!-- Exact exterior decoration prefabs, drawn as unlit non-colliding decals. -->
  <g id="exterior-decorations" stroke="#36543a" stroke-width="4">
    <g transform="translate(576 320)" fill="#9b4f65"><circle cx="-14" cy="4" r="12"/><circle cx="6" cy="-7" r="11"/><circle cx="18" cy="10" r="10"/></g>
    <g transform="translate(64 704)" fill="#9b4f65"><circle cx="-14" cy="4" r="12"/><circle cx="6" cy="-7" r="11"/><circle cx="18" cy="10" r="10"/></g>
    <g transform="translate(1472 320)" fill="#c49c51"><circle cx="-14" cy="4" r="12"/><circle cx="6" cy="-7" r="11"/><circle cx="18" cy="10" r="10"/></g>
    <g transform="translate(2240 832)" fill="#8c68a6"><circle cx="-14" cy="4" r="12"/><circle cx="6" cy="-7" r="11"/><circle cx="18" cy="10" r="10"/></g>
  </g>
  <g id="exterior-pebbles" fill="#aaa596" stroke="#595f59" stroke-width="4">
    <g transform="translate(576 960)"><ellipse cx="-14" cy="4" rx="15" ry="9"/><ellipse cx="14" cy="-5" rx="12" ry="8"/></g>
    <g transform="translate(960 1472)"><ellipse cx="-14" cy="4" rx="15" ry="9"/><ellipse cx="14" cy="-5" rx="12" ry="8"/></g>
    <g transform="translate(1600 576)"><ellipse cx="-14" cy="4" rx="15" ry="9"/><ellipse cx="14" cy="-5" rx="12" ry="8"/></g>
    <g transform="translate(1984 832)"><ellipse cx="-14" cy="4" rx="15" ry="9"/><ellipse cx="14" cy="-5" rx="12" ry="8"/></g>
  </g>

  <!-- Distant vegetation, ordered behind all building anchors. -->
  <g stroke="#28452e" stroke-width="8">
    <g><rect x="174" y="188" width="36" height="80" fill="#644a35"/><ellipse cx="192" cy="126" rx="150" ry="126" fill="#315a38"/></g>
    <g><rect x="430" y="190" width="36" height="80" fill="#644a35"/><ellipse cx="384" cy="128" rx="120" ry="120" fill="#3d6841"/></g>
    <g><rect x="686" y="318" width="36" height="80" fill="#644a35"/><ellipse cx="704" cy="246" rx="72" ry="112" fill="#477247"/></g>
    <g><rect x="1838" y="188" width="36" height="80" fill="#644a35"/><ellipse cx="1856" cy="126" rx="150" ry="126" fill="#315a38"/></g>
    <g><rect x="1582" y="190" width="36" height="80" fill="#644a35"/><ellipse cx="1536" cy="128" rx="120" ry="120" fill="#3d6841"/></g>
    <g><rect x="2094" y="60" width="36" height="80" fill="#644a35"/><ellipse cx="2112" cy="62" rx="72" ry="112" fill="#477247"/></g>
  </g>

  <!-- Town hall, anchor y=512. Contracted 832px height continues to y=-320. -->
  <g id="town-hall">
    <rect x="896" y="192" width="512" height="320" fill="#746b61" stroke="#27313a" stroke-width="10"/>
    <rect x="1052" y="-178" width="200" height="382" fill="#6d685f" stroke="#182733" stroke-width="12"/>
    <path d="M1018 -166 L1152 -320 L1286 -166 L1252 -126 L1052 -126 Z" fill="#253e51" stroke="#182733" stroke-width="12"/>
    <path d="M872 188 L982 -96 L1082 34 L1152 -92 L1222 34 L1322 -96 L1432 188 L1408 254 L896 254 Z" fill="#253e51" stroke="#182733" stroke-width="12"/>
    <path d="M914 206 L1000 -34 L1100 124 L1152 44 L1204 124 L1304 -34 L1390 206 Z" fill="#304d60" stroke="#182733" stroke-width="10"/>
    <circle cx="1152" cy="20" r="58" fill="#7d7765" stroke="#27313a" stroke-width="9"/>
    <path d="M1152 -22 V20 L1182 42 M1115 72 H1189" fill="none" stroke="#30343a" stroke-width="8" stroke-linecap="round"/>
    <rect x="1024" y="224" width="128" height="288" rx="44" fill="#62412f" stroke="#25272b" stroke-width="10"/>
    <rect x="944" y="330" width="64" height="90" fill="#31404a" stroke="#27313a" stroke-width="8"/>
    <rect x="1296" y="330" width="64" height="90" fill="#31404a" stroke="#27313a" stroke-width="8"/>
    <g fill="#8d7441" stroke="#342f28" stroke-width="6">
      <circle cx="994" cy="402" r="15"/><path d="M994 417 V452"/>
      <circle cx="1182" cy="402" r="15"/><path d="M1182 417 V452"/>
    </g>
  </g>

  <!-- Survey tower, anchor y=640, rendered before nearer y=896 buildings. -->
  <g id="survey-tower">
    <rect x="1920" y="320" width="256" height="320" fill="#5b6062" stroke="#27313a" stroke-width="10"/>
    <path d="M1904 356 L2048 128 L2192 356 L2176 402 L1920 402 Z" fill="#2d4756" stroke="#182733" stroke-width="12"/>
    <rect x="1920" y="352" width="128" height="288" rx="40" fill="#4c4037" stroke="#25272b" stroke-width="10"/>
    <path d="M1908 334 L2186 382 L2154 488 L1920 444 Z" fill="#6e5c7e" stroke="#44384d" stroke-width="8"/>
  </g>

  <!-- Inn and medium house, both anchored at y=896. Exterior state only. -->
  <g id="inn">
    <rect x="128" y="576" width="384" height="320" fill="#72543c" stroke="#27313a" stroke-width="10"/>
    <path d="M112 608 L320 256 L528 608 L512 652 L128 652 Z" fill="#2c475a" stroke="#182733" stroke-width="12"/>
    <path d="M268 432 L384 296 L528 516 L512 610 L358 492 Z" fill="#35586c" stroke="#182733" stroke-width="9"/>
    <rect x="256" y="608" width="128" height="288" rx="42" fill="#62402d" stroke="#25272b" stroke-width="10"/>
    <rect x="168" y="672" width="66" height="84" fill="#31404a" stroke="#27313a" stroke-width="8"/>
    <rect x="406" y="672" width="66" height="84" fill="#31404a" stroke="#27313a" stroke-width="8"/>
    <rect x="380" y="626" width="104" height="64" rx="8" fill="#30465d" stroke="#27313a" stroke-width="7"/>
    <g fill="#8d7441" stroke="#342f28" stroke-width="6"><circle cx="228" cy="700" r="15"/><path d="M228 715 V750"/></g>
  </g>
  <g id="house-m">
    <rect x="1536" y="576" width="384" height="320" fill="#6d5848" stroke="#27313a" stroke-width="10"/>
    <path d="M1520 610 L1728 288 L1936 610 L1920 652 L1536 652 Z" fill="#304b58" stroke="#182733" stroke-width="12"/>
    <path d="M1652 478 L1772 326 L1904 526 L1888 610 L1740 482 Z" fill="#395866" stroke="#182733" stroke-width="9"/>
    <rect x="1664" y="608" width="128" height="288" rx="42" fill="#62402d" stroke="#25272b" stroke-width="10"/>
    <rect x="1584" y="672" width="72" height="84" fill="#31404a" stroke="#27313a" stroke-width="8"/>
    <rect x="1840" y="672" width="72" height="84" fill="#31404a" stroke="#27313a" stroke-width="8"/>
    <g fill="#8d7441" stroke="#342f28" stroke-width="6"><circle cx="1818" cy="700" r="15"/><path d="M1818 715 V750"/></g>
  </g>

  <!-- Repositionable world props; their exact anchors match the slice. -->
  <g stroke="#342c24" stroke-width="7">
    <circle cx="1472" cy="576" r="58" fill="#737d80"/><circle cx="1472" cy="576" r="30" fill="#304956"/>
    <rect x="780" y="946" width="120" height="42" rx="9" fill="#765639"/>
    <rect x="1164" y="946" width="120" height="42" rx="9" fill="#765639"/>
    <rect x="664" y="934" width="58" height="76" fill="#67513b"/>
    <circle cx="576" cy="704" r="44" fill="#7b5b35"/>
    <rect x="548" y="810" width="64" height="64" fill="#876944"/>
    <rect x="1812" y="430" width="86" height="72" fill="#8f7956"/>
    <circle cx="1856" cy="576" r="32" fill="#a27d43"/>
  </g>
  <g stroke="#29313a" stroke-width="9" fill="#856d3e">
    <path d="M448 1152 V1052"/><circle cx="448" cy="1042" r="20"/>
    <path d="M1344 1152 V1052"/><circle cx="1344" cy="1042" r="20"/>
    <path d="M2112 1408 V1308"/><circle cx="2112" cy="1298" r="20"/>
  </g>

  <!-- Individually cuttable off-map foreground prefabs. Upper two road lanes stay visible. -->
  <g id="boundary-house-sw-a" stroke="#182733" stroke-width="10">
    <path d="M-18 1536 V1450 L96 1282 L254 1450 V1536 Z" fill="#263f52"/>
    <rect x="0" y="1460" width="246" height="76" fill="#66503f"/>
  </g>
  <g id="boundary-house-sw-b" stroke="#182733" stroke-width="10">
    <path d="M300 1536 V1440 L426 1256 L574 1440 V1536 Z" fill="#30495a"/>
    <rect x="318" y="1460" width="238" height="76" fill="#6d5540"/>
  </g>
  <g id="boundary-tree-sw" fill="#315a38" stroke="#28452e" stroke-width="8"><ellipse cx="760" cy="1450" rx="92" ry="92"/></g>
  <g id="boundary-house-se-a" stroke="#182733" stroke-width="10">
    <path d="M1710 1536 V1440 L1840 1268 L1984 1440 V1536 Z" fill="#30495a"/>
    <rect x="1728" y="1460" width="238" height="76" fill="#6d5540"/>
  </g>
  <g id="boundary-house-se-b" stroke="#182733" stroke-width="10">
    <path d="M2048 1536 V1444 L2180 1244 L2324 1438 V1536 Z" fill="#263f52"/>
    <rect x="2064" y="1460" width="240" height="76" fill="#66503f"/>
  </g>
  <g id="boundary-tree-se" fill="#315a38" stroke="#28452e" stroke-width="8"><ellipse cx="1560" cy="1446" rx="92" ry="92"/></g>
  <g id="boundary-walls" fill="#6b6b62" stroke="#3a413f" stroke-width="8">
    <rect x="860" y="1480" width="164" height="36"/><rect x="1280" y="1480" width="170" height="36"/>
  </g>

</svg>
